<?xml version="1.0" encoding="UTF-8"?>
<svg id="_Слой_1" data-name="Слой 1" xmlns="http://www.w3.org/2000/svg" viewBox="0 0 132.883 132.883">
  <defs>
    <style>
      .cls-1 {
        fill: #36a9e1;
      }

      .cls-1, .cls-2 {
        stroke-width: 0px;
      }

      .cls-2 {
        fill: #f6f6f6;
      }
    </style>
  </defs>
  <rect class="cls-1" width="132.883" height="132.883" rx="28.298" ry="28.298"/>
  <path class="cls-2" d="M61.118,29.547v-11.975h9.436v11.975h23.83v8.226h-23.83v24.193h16.693c1.935,0,3.689.646,5.262,1.935,1.573,1.291,2.943,3.025,4.113,5.202,1.168,2.177,2.057,4.678,2.661,7.5.605,2.824.907,5.806.907,8.952,0,3.066-.303,5.908-.907,8.528-.605,2.622-1.452,4.88-2.541,6.774-1.089,1.896-2.44,3.387-4.053,4.476-1.614,1.089-3.428,1.633-5.443,1.633h-16.693v8.346h-9.436v-8.346h-25.644v-8.105h25.644v-25.282h-13.669c-2.177,0-4.154-.645-5.927-1.936-1.775-1.289-3.327-3.003-4.657-5.14-1.331-2.136-2.359-4.597-3.085-7.379-.725-2.783-1.089-5.705-1.089-8.77,0-6.369,1.371-11.431,4.113-15.181,2.741-3.75,6.611-5.624,11.613-5.624h12.701ZM55.433,37.773c-1.935,0-3.489,1.13-4.657,3.386-1.17,2.259-1.754,5.202-1.754,8.831,0,3.387.584,6.23,1.754,8.528,1.168,2.299,2.722,3.448,4.657,3.448h5.685v-24.193h-5.685ZM70.554,98.86h6.653c2.338,0,4.173-1.249,5.504-3.75,1.331-2.499,1.996-5.444,1.996-8.83,0-1.613-.162-3.185-.483-4.718-.323-1.531-.807-2.883-1.452-4.053-.646-1.168-1.432-2.117-2.359-2.843-.929-.726-1.996-1.089-3.206-1.089h-6.653v25.282Z"/>
</svg>