<?xml version="1.0" encoding="UTF-8"?>
<svg id="_Слой_1" data-name="Слой 1" xmlns="http://www.w3.org/2000/svg" viewBox="0 0 1668.877 781.282">
  <defs>
    <style>
      .cls-1 {
        fill: #29abe2;
        stroke-width: 0px;
      }
    </style>
  </defs>
  <g>
    <path class="cls-1" d="M306.951,18.943h160.203v46.284h-92.727v68.938h89.415v46.675h-89.415v115.612h-67.476V18.943Z"/>
    <path class="cls-1" d="M500.063,0h63.957v54.096h-63.957V0ZM500.063,89.248h63.957v207.204h-63.957V89.248Z"/>
    <path class="cls-1" d="M798.528,154.866v141.586h-64.578v-127.916c0-11.327-1.967-19.626-5.898-24.899-3.934-5.273-10.11-7.909-18.525-7.909-9.521,0-16.801,3.646-21.836,10.936-5.039,7.293-7.555,17.903-7.555,31.833v117.956h-64.371v-162.287c0-11.977-.175-21.091-.518-27.341-.346-6.25-.863-12.108-1.552-17.576h58.782c.828,6.249,1.413,11.946,1.759,17.088.343,5.145.518,9.994.518,14.549,4.967-11.196,12.936-19.984,23.906-26.364,10.97-6.377,23.492-9.569,37.566-9.569,20.284,0,35.736,5.926,46.364,17.771,10.623,11.849,15.938,29.229,15.938,52.143Z"/>
    <path class="cls-1" d="M1019.582,177.715v76.359c0,8.983.207,16.795.621,23.435.413,6.641,1.103,12.957,2.069,18.943h-60.231l-2.483-26.755c-8.558,10.418-18.25,18.229-29.081,23.436-10.834,5.205-22.803,7.812-35.911,7.812-19.041,0-34.394-5.859-46.053-17.576-11.662-11.718-17.49-27.079-17.49-46.089,0-23.044,8.969-40.749,26.908-53.119,17.936-12.368,43.74-18.553,77.41-18.553h21.526v-5.859c0-11.064-3.59-19.432-10.764-25.095-7.176-5.664-17.732-8.495-31.668-8.495-9.935,0-19.837,1.629-29.701,4.882-9.867,3.256-19.01,8.007-27.425,14.256l-3.312-46.088c13.521-4.687,26.597-8.233,39.223-10.644,12.626-2.408,24.802-3.613,36.532-3.613,33.392,0,56.712,6.576,69.959,19.724,13.246,13.152,19.87,37.496,19.87,73.039ZM956.867,199.197c-2.623-.259-5.35-.455-8.176-.585-2.83-.128-6.452-.195-10.866-.195-15.317,0-26.908,2.801-34.773,8.397-7.865,5.599-11.797,13.737-11.797,24.411,0,8.593,2.551,15.331,7.657,20.212,5.104,4.883,12.141,7.323,21.112,7.323,12.555,0,21.836-3.872,27.839-11.619,6.002-7.745,9.004-19.822,9.004-36.227v-11.718Z"/>
    <path class="cls-1" d="M1252.435,154.866v141.586h-64.578v-127.916c0-11.327-1.966-19.626-5.898-24.899s-10.11-7.909-18.524-7.909c-9.521,0-16.802,3.646-21.837,10.936-5.039,7.293-7.555,17.903-7.555,31.833v117.956h-64.371v-162.287c0-11.977-.174-21.091-.517-27.341-.347-6.25-.864-12.108-1.553-17.576h58.782c.828,6.249,1.413,11.946,1.76,17.088.343,5.145.517,9.994.517,14.549,4.968-11.196,12.937-19.984,23.906-26.364,10.97-6.377,23.492-9.569,37.567-9.569,20.284,0,35.736,5.926,46.363,17.771,10.624,11.849,15.938,29.229,15.938,52.143Z"/>
    <path class="cls-1" d="M1449.065,94.912l-3.519,46.674c-5.935-2.993-12.076-5.337-18.421-7.03-6.349-1.69-12.49-2.539-18.422-2.539-16.422,0-28.873,4.818-37.359,14.452-8.486,9.636-12.729,23.762-12.729,42.378,0,21.091,4.068,37.236,12.212,48.432,8.14,11.198,19.799,16.795,34.979,16.795,7.587,0,15.074-.909,22.457-2.734,7.38-1.821,14.453-4.491,21.216-8.007l3.312,46.675c-10.627,3.646-21.147,6.381-31.564,8.202-10.42,1.821-20.802,2.734-31.15,2.734-30.497,0-54.643-9.829-72.443-29.489-17.8-19.657-26.7-46.412-26.7-80.265,0-33.068,9.278-59.042,27.839-77.921,18.558-18.876,43.845-28.317,75.858-28.317,9.243,0,18.35.814,27.321,2.441,8.968,1.629,18.007,4.135,27.114,7.519Z"/>
    <path class="cls-1" d="M1535.79,209.352c1.655,16.405,6.934,28.677,15.834,36.812,8.9,8.138,21.422,12.205,37.566,12.205,9.521,0,19.042-1.3,28.563-3.905,9.521-2.603,19.249-6.573,29.185-11.913l2.069,44.331c-10.902,4.56-22.218,8.041-33.944,10.448-11.73,2.408-23.321,3.613-34.772,3.613-34.498,0-61.267-9.341-80.309-28.024-19.042-18.681-28.563-44.947-28.563-78.8,0-32.678,8.658-59.042,25.977-79.093,17.314-20.048,39.979-30.075,67.992-30.075,29.941,0,53.194,9.636,69.753,28.903,16.558,19.27,24.837,46.547,24.837,81.827,0,3.646-.035,6.381-.104,8.202-.071,1.825-.175,3.583-.311,5.273l-123.773.195ZM1600.161,175.762c0-2.081.067-4.132.206-6.152.137-2.017.207-3.091.207-3.222,0-12.758-2.69-22.654-8.072-29.685-5.381-7.03-12.972-10.545-22.768-10.545-11.041,0-19.388,3.973-25.044,11.913-5.66,7.943-9.039,20.505-10.143,37.691h65.613Z"/>
    <path class="cls-1" d="M95.625,498.89h78.032l91.278,277.51h-69.959l-16.973-61.907h-94.589l-17.8,61.907H0l95.625-277.51ZM133.502,553.573l-35.187,112.878h66.44l-31.254-112.878Z"/>
    <path class="cls-1" d="M416.236,573.687l-1.035,45.112c-8.279-4.165-16.455-7.256-24.527-9.276-8.072-2.017-16.112-3.026-24.113-3.026-9.799,0-17.179,1.629-22.146,4.882-4.968,3.256-7.451,8.139-7.451,14.647,0,7.942,10.417,15.818,31.254,23.63,26.079,9.765,42.638,19.041,49.675,27.829,7.038,8.788,10.556,21.125,10.556,37.008,0,21.223-7.762,37.66-23.285,49.311-15.523,11.653-37.567,17.479-66.13,17.479-8.832,0-18.285-.814-28.356-2.44-10.074-1.63-20.562-4.067-31.461-7.323l.414-49.019c9.521,5.468,19.317,9.7,29.391,12.694,10.071,2.996,19.938,4.491,29.598,4.491,10.071,0,17.936-1.855,23.596-5.565,5.656-3.711,8.486-8.819,8.486-15.331,0-8.07-10.006-15.751-30.012-23.044-4.004-1.432-7.109-2.539-9.314-3.32-20.284-7.681-34.394-15.916-42.327-24.704-7.937-8.788-11.901-20.146-11.901-34.078,0-21.482,7.208-38.244,21.629-50.288,14.417-12.041,34.462-18.064,60.127-18.064,9.382,0,18.903.684,28.563,2.051,9.657,1.367,19.249,3.484,28.77,6.347Z"/>
    <path class="cls-1" d="M597.757,573.687l-1.035,45.112c-8.279-4.165-16.455-7.256-24.527-9.276-8.072-2.017-16.112-3.026-24.113-3.026-9.799,0-17.179,1.629-22.146,4.882-4.968,3.256-7.451,8.139-7.451,14.647,0,7.942,10.417,15.818,31.254,23.63,26.079,9.765,42.638,19.041,49.675,27.829,7.038,8.788,10.556,21.125,10.556,37.008,0,21.223-7.762,37.66-23.285,49.311-15.523,11.653-37.567,17.479-66.13,17.479-8.832,0-18.285-.814-28.356-2.44-10.074-1.63-20.562-4.067-31.461-7.323l.414-49.019c9.521,5.468,19.317,9.7,29.391,12.694,10.071,2.996,19.938,4.491,29.598,4.491,10.071,0,17.936-1.855,23.596-5.565,5.656-3.711,8.486-8.819,8.486-15.331,0-8.07-10.006-15.751-30.012-23.044-4.004-1.432-7.109-2.539-9.314-3.32-20.284-7.681-34.394-15.916-42.327-24.704-7.937-8.788-11.901-20.146-11.901-34.078,0-21.482,7.208-38.244,21.629-50.288,14.417-12.041,34.462-18.064,60.127-18.064,9.382,0,18.903.684,28.563,2.051,9.657,1.367,19.249,3.484,28.77,6.347Z"/>
    <path class="cls-1" d="M650.331,479.948h63.957v54.096h-63.957v-54.096ZM650.331,569.196h63.957v207.204h-63.957v-207.204Z"/>
    <path class="cls-1" d="M894.98,573.687l-1.034,45.112c-8.279-4.165-16.455-7.256-24.527-9.276-8.072-2.017-16.112-3.026-24.113-3.026-9.799,0-17.18,1.629-22.146,4.882-4.969,3.256-7.451,8.139-7.451,14.647,0,7.942,10.416,15.818,31.254,23.63,26.078,9.765,42.637,19.041,49.674,27.829s10.557,21.125,10.557,37.008c0,21.223-7.762,37.66-23.285,49.311-15.523,11.653-37.566,17.479-66.131,17.479-8.832,0-18.285-.814-28.355-2.44-10.074-1.63-20.562-4.067-31.461-7.323l.414-49.019c9.521,5.468,19.316,9.7,29.391,12.694,10.071,2.996,19.938,4.491,29.599,4.491,10.071,0,17.937-1.855,23.596-5.565,5.656-3.711,8.485-8.819,8.485-15.331,0-8.07-10.006-15.751-30.012-23.044-4.004-1.432-7.108-2.539-9.314-3.32-20.283-7.681-34.394-15.916-42.326-24.704-7.938-8.788-11.902-20.146-11.902-34.078,0-21.482,7.209-38.244,21.63-50.288,14.417-12.041,34.462-18.064,60.128-18.064,9.382,0,18.902.684,28.562,2.051,9.657,1.367,19.25,3.484,28.771,6.347Z"/>
    <path class="cls-1" d="M1019.996,508.46v60.735h42.017v42.769h-42.017v86.515c0,15.232,1.792,25.226,5.382,29.977,3.586,4.755,10.003,7.129,19.249,7.129,2.483,0,5.381-.26,8.692-.781,3.312-.52,7.312-1.301,12.005-2.344v43.55c-7.729,1.432-15.041,2.505-21.939,3.223-6.901.714-13.386,1.074-19.456,1.074-24.977,0-42.534-5.239-52.677-15.722-10.142-10.479-15.213-31.344-15.213-62.591v-90.029h-36.015v-42.769h36.015v-41.987l63.957-18.748Z"/>
    <path class="cls-1" d="M1268.786,657.663v76.359c0,8.983.207,16.795.621,23.435.413,6.64,1.103,12.956,2.069,18.943h-60.231l-2.483-26.755c-8.558,10.418-18.25,18.229-29.081,23.435-10.834,5.206-22.803,7.812-35.91,7.812-19.043,0-34.395-5.859-46.054-17.577-11.662-11.717-17.489-27.078-17.489-46.088,0-23.045,8.968-40.749,26.907-53.12,17.936-12.367,43.74-18.553,77.41-18.553h21.526v-5.858c0-11.064-3.59-19.432-10.764-25.095-7.176-5.664-17.732-8.495-31.668-8.495-9.935,0-19.837,1.629-29.701,4.882-9.867,3.256-19.01,8.007-27.425,14.257l-3.312-46.089c13.521-4.688,26.597-8.233,39.223-10.644,12.626-2.407,24.802-3.613,36.532-3.613,33.392,0,56.712,6.576,69.959,19.725,13.246,13.151,19.87,37.496,19.87,73.039ZM1206.071,679.145c-2.623-.26-5.35-.455-8.176-.586-2.83-.128-6.452-.195-10.866-.195-15.317,0-26.908,2.801-34.773,8.397-7.865,5.6-11.798,13.737-11.798,24.411,0,8.593,2.552,15.331,7.658,20.213,5.104,4.882,12.141,7.323,21.112,7.323,12.555,0,21.836-3.872,27.839-11.62,6.002-7.744,9.004-19.821,9.004-36.227v-11.717Z"/>
    <path class="cls-1" d="M1501.639,634.814v141.586h-64.578v-127.916c0-11.327-1.966-19.627-5.898-24.899-3.933-5.273-10.11-7.909-18.524-7.909-9.521,0-16.802,3.646-21.837,10.937-5.039,7.292-7.555,17.902-7.555,31.832v117.956h-64.371v-162.287c0-11.977-.174-21.092-.517-27.341-.347-6.249-.864-12.108-1.553-17.576h58.782c.828,6.249,1.413,11.946,1.76,17.088.343,5.145.517,9.993.517,14.549,4.968-11.195,12.937-19.983,23.906-26.364,10.97-6.377,23.492-9.569,37.567-9.569,20.284,0,35.736,5.926,46.363,17.771,10.624,11.849,15.938,29.23,15.938,52.144Z"/>
    <path class="cls-1" d="M1623.549,508.46v60.735h42.017v42.769h-42.017v86.515c0,15.232,1.792,25.226,5.382,29.977,3.586,4.755,10.003,7.129,19.249,7.129,2.483,0,5.381-.26,8.692-.781,3.312-.52,7.312-1.301,12.005-2.344v43.55c-7.729,1.432-15.041,2.505-21.939,3.223-6.901.714-13.386,1.074-19.456,1.074-24.977,0-42.534-5.239-52.677-15.722-10.142-10.479-15.213-31.344-15.213-62.591v-90.029h-36.015v-42.769h36.015v-41.987l63.957-18.748Z"/>
  </g>
  <text/>
</svg>